<mxfile host="app.diagrams.net" modified="2022-09-20T19:51:38.923Z" agent="5.0 (Windows NT 10.0; Win64; x64) AppleWebKit/537.36 (KHTML, like Gecko) Chrome/105.0.0.0 Safari/537.36" etag="VJvSWbSrJvrqDid_MQNn" version="20.3.3" type="github" pages="2">
  <diagram id="UT-qD1kF3HPHE-cdim4v" name="Page-1">
    <mxGraphModel dx="1356" dy="1895" grid="0" gridSize="10" guides="1" tooltips="1" connect="1" arrows="1" fold="1" page="1" pageScale="1" pageWidth="1100" pageHeight="850" math="0" shadow="0">
      <root>
        <mxCell id="0" />
        <mxCell id="1" parent="0" />
        <mxCell id="D0WQU8Z_5N7r7djm6m5t-72" value="Window" style="swimlane;fontStyle=1;align=center;verticalAlign=top;childLayout=stackLayout;horizontal=1;startSize=26;horizontalStack=0;resizeParent=1;resizeParentMax=0;resizeLast=0;collapsible=1;marginBottom=0;" parent="1" vertex="1">
          <mxGeometry x="9" y="-818" width="206" height="268" as="geometry">
            <mxRectangle x="9" y="-818" width="81" height="26" as="alternateBounds" />
          </mxGeometry>
        </mxCell>
        <mxCell id="D0WQU8Z_5N7r7djm6m5t-74" value="widgets: list&lt;Widget&gt;Â " style="text;strokeColor=none;fillColor=none;align=left;verticalAlign=top;spacingLeft=4;spacingRight=4;overflow=hidden;rotatable=0;points=[[0,0.5],[1,0.5]];portConstraint=eastwest;" parent="D0WQU8Z_5N7r7djm6m5t-72" vertex="1">
          <mxGeometry y="26" width="206" height="26" as="geometry" />
        </mxCell>
        <mxCell id="D0WQU8Z_5N7r7djm6m5t-73" value="panels: list&lt;Panel&gt;" style="text;strokeColor=none;fillColor=none;align=left;verticalAlign=top;spacingLeft=4;spacingRight=4;overflow=hidden;rotatable=0;points=[[0,0.5],[1,0.5]];portConstraint=eastwest;" parent="D0WQU8Z_5N7r7djm6m5t-72" vertex="1">
          <mxGeometry y="52" width="206" height="26" as="geometry" />
        </mxCell>
        <mxCell id="D0WQU8Z_5N7r7djm6m5t-75" value="dimensions: (number, number)" style="text;strokeColor=none;fillColor=none;align=left;verticalAlign=top;spacingLeft=4;spacingRight=4;overflow=hidden;rotatable=0;points=[[0,0.5],[1,0.5]];portConstraint=eastwest;" parent="D0WQU8Z_5N7r7djm6m5t-72" vertex="1">
          <mxGeometry y="78" width="206" height="26" as="geometry" />
        </mxCell>
        <mxCell id="JkL0fdGp7bMQoUoKIxsp-1" value="name: string" style="text;strokeColor=none;fillColor=none;align=left;verticalAlign=top;spacingLeft=4;spacingRight=4;overflow=hidden;rotatable=0;points=[[0,0.5],[1,0.5]];portConstraint=eastwest;" vertex="1" parent="D0WQU8Z_5N7r7djm6m5t-72">
          <mxGeometry y="104" width="206" height="26" as="geometry" />
        </mxCell>
        <mxCell id="D0WQU8Z_5N7r7djm6m5t-77" value="" style="line;strokeWidth=1;fillColor=none;align=left;verticalAlign=middle;spacingTop=-1;spacingLeft=3;spacingRight=3;rotatable=0;labelPosition=right;points=[];portConstraint=eastwest;strokeColor=inherit;" parent="D0WQU8Z_5N7r7djm6m5t-72" vertex="1">
          <mxGeometry y="130" width="206" height="8" as="geometry" />
        </mxCell>
        <mxCell id="D0WQU8Z_5N7r7djm6m5t-78" value="selectPanel(): void" style="text;strokeColor=none;fillColor=none;align=left;verticalAlign=top;spacingLeft=4;spacingRight=4;overflow=hidden;rotatable=0;points=[[0,0.5],[1,0.5]];portConstraint=eastwest;" parent="D0WQU8Z_5N7r7djm6m5t-72" vertex="1">
          <mxGeometry y="138" width="206" height="26" as="geometry" />
        </mxCell>
        <mxCell id="D0WQU8Z_5N7r7djm6m5t-79" value="close(): void" style="text;strokeColor=none;fillColor=none;align=left;verticalAlign=top;spacingLeft=4;spacingRight=4;overflow=hidden;rotatable=0;points=[[0,0.5],[1,0.5]];portConstraint=eastwest;" parent="D0WQU8Z_5N7r7djm6m5t-72" vertex="1">
          <mxGeometry y="164" width="206" height="26" as="geometry" />
        </mxCell>
        <mxCell id="D0WQU8Z_5N7r7djm6m5t-80" value="resize(number, number): void" style="text;strokeColor=none;fillColor=none;align=left;verticalAlign=top;spacingLeft=4;spacingRight=4;overflow=hidden;rotatable=0;points=[[0,0.5],[1,0.5]];portConstraint=eastwest;" parent="D0WQU8Z_5N7r7djm6m5t-72" vertex="1">
          <mxGeometry y="190" width="206" height="26" as="geometry" />
        </mxCell>
        <mxCell id="D0WQU8Z_5N7r7djm6m5t-138" value="addPanel(panel): void" style="text;strokeColor=none;fillColor=none;align=left;verticalAlign=top;spacingLeft=4;spacingRight=4;overflow=hidden;rotatable=0;points=[[0,0.5],[1,0.5]];portConstraint=eastwest;" parent="D0WQU8Z_5N7r7djm6m5t-72" vertex="1">
          <mxGeometry y="216" width="206" height="26" as="geometry" />
        </mxCell>
        <mxCell id="D0WQU8Z_5N7r7djm6m5t-140" value="removePanel(panel): void" style="text;strokeColor=none;fillColor=none;align=left;verticalAlign=top;spacingLeft=4;spacingRight=4;overflow=hidden;rotatable=0;points=[[0,0.5],[1,0.5]];portConstraint=eastwest;" parent="D0WQU8Z_5N7r7djm6m5t-72" vertex="1">
          <mxGeometry y="242" width="206" height="26" as="geometry" />
        </mxCell>
        <mxCell id="D0WQU8Z_5N7r7djm6m5t-81" value="Panel" style="swimlane;fontStyle=1;align=center;verticalAlign=top;childLayout=stackLayout;horizontal=1;startSize=26;horizontalStack=0;resizeParent=1;resizeParentMax=0;resizeLast=0;collapsible=1;marginBottom=0;" parent="1" vertex="1">
          <mxGeometry x="256" y="-692" width="201" height="242" as="geometry">
            <mxRectangle x="320" y="-818" width="67" height="26" as="alternateBounds" />
          </mxGeometry>
        </mxCell>
        <mxCell id="D0WQU8Z_5N7r7djm6m5t-82" value="name: string" style="text;strokeColor=none;fillColor=none;align=left;verticalAlign=top;spacingLeft=4;spacingRight=4;overflow=hidden;rotatable=0;points=[[0,0.5],[1,0.5]];portConstraint=eastwest;" parent="D0WQU8Z_5N7r7djm6m5t-81" vertex="1">
          <mxGeometry y="26" width="201" height="26" as="geometry" />
        </mxCell>
        <mxCell id="JkL0fdGp7bMQoUoKIxsp-2" value="dimensions: (number, number)" style="text;strokeColor=none;fillColor=none;align=left;verticalAlign=top;spacingLeft=4;spacingRight=4;overflow=hidden;rotatable=0;points=[[0,0.5],[1,0.5]];portConstraint=eastwest;" vertex="1" parent="D0WQU8Z_5N7r7djm6m5t-81">
          <mxGeometry y="52" width="201" height="26" as="geometry" />
        </mxCell>
        <mxCell id="VL1n-k4XV_zTkOc4iAcl-5" value="widgets: list&lt;Widget&gt;" style="text;strokeColor=none;fillColor=none;align=left;verticalAlign=top;spacingLeft=4;spacingRight=4;overflow=hidden;rotatable=0;points=[[0,0.5],[1,0.5]];portConstraint=eastwest;" parent="D0WQU8Z_5N7r7djm6m5t-81" vertex="1">
          <mxGeometry y="78" width="201" height="26" as="geometry" />
        </mxCell>
        <mxCell id="D0WQU8Z_5N7r7djm6m5t-86" value="" style="line;strokeWidth=1;fillColor=none;align=left;verticalAlign=middle;spacingTop=-1;spacingLeft=3;spacingRight=3;rotatable=0;labelPosition=right;points=[];portConstraint=eastwest;strokeColor=inherit;" parent="D0WQU8Z_5N7r7djm6m5t-81" vertex="1">
          <mxGeometry y="104" width="201" height="8" as="geometry" />
        </mxCell>
        <mxCell id="YnPBGDpdCJBYccEIkFx0-3" value="select(): void" style="text;strokeColor=none;fillColor=none;align=left;verticalAlign=top;spacingLeft=4;spacingRight=4;overflow=hidden;rotatable=0;points=[[0,0.5],[1,0.5]];portConstraint=eastwest;" parent="D0WQU8Z_5N7r7djm6m5t-81" vertex="1">
          <mxGeometry y="112" width="201" height="26" as="geometry" />
        </mxCell>
        <mxCell id="D0WQU8Z_5N7r7djm6m5t-87" value="close(): void" style="text;strokeColor=none;fillColor=none;align=left;verticalAlign=top;spacingLeft=4;spacingRight=4;overflow=hidden;rotatable=0;points=[[0,0.5],[1,0.5]];portConstraint=eastwest;" parent="D0WQU8Z_5N7r7djm6m5t-81" vertex="1">
          <mxGeometry y="138" width="201" height="26" as="geometry" />
        </mxCell>
        <mxCell id="D0WQU8Z_5N7r7djm6m5t-108" value="resize(number, number): void" style="text;strokeColor=none;fillColor=none;align=left;verticalAlign=top;spacingLeft=4;spacingRight=4;overflow=hidden;rotatable=0;points=[[0,0.5],[1,0.5]];portConstraint=eastwest;" parent="D0WQU8Z_5N7r7djm6m5t-81" vertex="1">
          <mxGeometry y="164" width="201" height="26" as="geometry" />
        </mxCell>
        <mxCell id="f68Y0WPvlqwC1lVv3MSY-29" value="syncPlots(): void" style="text;strokeColor=none;fillColor=none;align=left;verticalAlign=top;spacingLeft=4;spacingRight=4;overflow=hidden;rotatable=0;points=[[0,0.5],[1,0.5]];portConstraint=eastwest;" parent="D0WQU8Z_5N7r7djm6m5t-81" vertex="1">
          <mxGeometry y="190" width="201" height="26" as="geometry" />
        </mxCell>
        <mxCell id="f68Y0WPvlqwC1lVv3MSY-37" value="aggregratePlot(Plot): Plot" style="text;strokeColor=none;fillColor=none;align=left;verticalAlign=top;spacingLeft=4;spacingRight=4;overflow=hidden;rotatable=0;points=[[0,0.5],[1,0.5]];portConstraint=eastwest;" parent="D0WQU8Z_5N7r7djm6m5t-81" vertex="1">
          <mxGeometry y="216" width="201" height="26" as="geometry" />
        </mxCell>
        <mxCell id="9P_D7GKj8WP1cLiMkDwV-7" style="edgeStyle=orthogonalEdgeStyle;rounded=0;orthogonalLoop=1;jettySize=auto;html=1;exitX=0.5;exitY=0;exitDx=0;exitDy=0;entryX=0.372;entryY=1.115;entryDx=0;entryDy=0;entryPerimeter=0;" parent="1" source="D0WQU8Z_5N7r7djm6m5t-119" target="f68Y0WPvlqwC1lVv3MSY-19" edge="1">
          <mxGeometry relative="1" as="geometry" />
        </mxCell>
        <mxCell id="D0WQU8Z_5N7r7djm6m5t-119" value="Plot" style="swimlane;fontStyle=1;align=center;verticalAlign=top;childLayout=stackLayout;horizontal=1;startSize=26;horizontalStack=0;resizeParent=1;resizeParentMax=0;resizeLast=0;collapsible=1;marginBottom=0;" parent="1" vertex="1">
          <mxGeometry x="540" y="-311" width="223" height="450" as="geometry" />
        </mxCell>
        <mxCell id="D0WQU8Z_5N7r7djm6m5t-120" value="title: string" style="text;strokeColor=none;fillColor=none;align=left;verticalAlign=top;spacingLeft=4;spacingRight=4;overflow=hidden;rotatable=0;points=[[0,0.5],[1,0.5]];portConstraint=eastwest;" parent="D0WQU8Z_5N7r7djm6m5t-119" vertex="1">
          <mxGeometry y="26" width="223" height="26" as="geometry" />
        </mxCell>
        <mxCell id="D0WQU8Z_5N7r7djm6m5t-121" value="xTitle: string" style="text;strokeColor=none;fillColor=none;align=left;verticalAlign=top;spacingLeft=4;spacingRight=4;overflow=hidden;rotatable=0;points=[[0,0.5],[1,0.5]];portConstraint=eastwest;" parent="D0WQU8Z_5N7r7djm6m5t-119" vertex="1">
          <mxGeometry y="52" width="223" height="26" as="geometry" />
        </mxCell>
        <mxCell id="D0WQU8Z_5N7r7djm6m5t-122" value="yTitle: string" style="text;strokeColor=none;fillColor=none;align=left;verticalAlign=top;spacingLeft=4;spacingRight=4;overflow=hidden;rotatable=0;points=[[0,0.5],[1,0.5]];portConstraint=eastwest;" parent="D0WQU8Z_5N7r7djm6m5t-119" vertex="1">
          <mxGeometry y="78" width="223" height="26" as="geometry" />
        </mxCell>
        <mxCell id="D0WQU8Z_5N7r7djm6m5t-123" value="xTicks" style="text;strokeColor=none;fillColor=none;align=left;verticalAlign=top;spacingLeft=4;spacingRight=4;overflow=hidden;rotatable=0;points=[[0,0.5],[1,0.5]];portConstraint=eastwest;" parent="D0WQU8Z_5N7r7djm6m5t-119" vertex="1">
          <mxGeometry y="104" width="223" height="26" as="geometry" />
        </mxCell>
        <mxCell id="D0WQU8Z_5N7r7djm6m5t-124" value="yTicks" style="text;strokeColor=none;fillColor=none;align=left;verticalAlign=top;spacingLeft=4;spacingRight=4;overflow=hidden;rotatable=0;points=[[0,0.5],[1,0.5]];portConstraint=eastwest;" parent="D0WQU8Z_5N7r7djm6m5t-119" vertex="1">
          <mxGeometry y="130" width="223" height="26" as="geometry" />
        </mxCell>
        <mxCell id="f68Y0WPvlqwC1lVv3MSY-33" value="xMin" style="text;strokeColor=none;fillColor=none;align=left;verticalAlign=top;spacingLeft=4;spacingRight=4;overflow=hidden;rotatable=0;points=[[0,0.5],[1,0.5]];portConstraint=eastwest;" parent="D0WQU8Z_5N7r7djm6m5t-119" vertex="1">
          <mxGeometry y="156" width="223" height="26" as="geometry" />
        </mxCell>
        <mxCell id="f68Y0WPvlqwC1lVv3MSY-34" value="yMin" style="text;strokeColor=none;fillColor=none;align=left;verticalAlign=top;spacingLeft=4;spacingRight=4;overflow=hidden;rotatable=0;points=[[0,0.5],[1,0.5]];portConstraint=eastwest;" parent="D0WQU8Z_5N7r7djm6m5t-119" vertex="1">
          <mxGeometry y="182" width="223" height="26" as="geometry" />
        </mxCell>
        <mxCell id="f68Y0WPvlqwC1lVv3MSY-35" value="xMax" style="text;strokeColor=none;fillColor=none;align=left;verticalAlign=top;spacingLeft=4;spacingRight=4;overflow=hidden;rotatable=0;points=[[0,0.5],[1,0.5]];portConstraint=eastwest;" parent="D0WQU8Z_5N7r7djm6m5t-119" vertex="1">
          <mxGeometry y="208" width="223" height="26" as="geometry" />
        </mxCell>
        <mxCell id="f68Y0WPvlqwC1lVv3MSY-36" value="yMax" style="text;strokeColor=none;fillColor=none;align=left;verticalAlign=top;spacingLeft=4;spacingRight=4;overflow=hidden;rotatable=0;points=[[0,0.5],[1,0.5]];portConstraint=eastwest;" parent="D0WQU8Z_5N7r7djm6m5t-119" vertex="1">
          <mxGeometry y="234" width="223" height="26" as="geometry" />
        </mxCell>
        <mxCell id="D0WQU8Z_5N7r7djm6m5t-125" value="displayData: DataModel" style="text;strokeColor=none;fillColor=none;align=left;verticalAlign=top;spacingLeft=4;spacingRight=4;overflow=hidden;rotatable=0;points=[[0,0.5],[1,0.5]];portConstraint=eastwest;" parent="D0WQU8Z_5N7r7djm6m5t-119" vertex="1">
          <mxGeometry y="260" width="223" height="26" as="geometry" />
        </mxCell>
        <mxCell id="D0WQU8Z_5N7r7djm6m5t-126" value="" style="line;strokeWidth=1;fillColor=none;align=left;verticalAlign=middle;spacingTop=-1;spacingLeft=3;spacingRight=3;rotatable=0;labelPosition=right;points=[];portConstraint=eastwest;strokeColor=inherit;" parent="D0WQU8Z_5N7r7djm6m5t-119" vertex="1">
          <mxGeometry y="286" width="223" height="8" as="geometry" />
        </mxCell>
        <mxCell id="D0WQU8Z_5N7r7djm6m5t-127" value="draw(): void" style="text;strokeColor=none;fillColor=none;align=left;verticalAlign=top;spacingLeft=4;spacingRight=4;overflow=hidden;rotatable=0;points=[[0,0.5],[1,0.5]];portConstraint=eastwest;" parent="D0WQU8Z_5N7r7djm6m5t-119" vertex="1">
          <mxGeometry y="294" width="223" height="26" as="geometry" />
        </mxCell>
        <mxCell id="D0WQU8Z_5N7r7djm6m5t-128" value="pan(number, number): void" style="text;strokeColor=none;fillColor=none;align=left;verticalAlign=top;spacingLeft=4;spacingRight=4;overflow=hidden;rotatable=0;points=[[0,0.5],[1,0.5]];portConstraint=eastwest;" parent="D0WQU8Z_5N7r7djm6m5t-119" vertex="1">
          <mxGeometry y="320" width="223" height="26" as="geometry" />
        </mxCell>
        <mxCell id="D0WQU8Z_5N7r7djm6m5t-129" value="zoomIn(): void" style="text;strokeColor=none;fillColor=none;align=left;verticalAlign=top;spacingLeft=4;spacingRight=4;overflow=hidden;rotatable=0;points=[[0,0.5],[1,0.5]];portConstraint=eastwest;" parent="D0WQU8Z_5N7r7djm6m5t-119" vertex="1">
          <mxGeometry y="346" width="223" height="26" as="geometry" />
        </mxCell>
        <mxCell id="D0WQU8Z_5N7r7djm6m5t-130" value="zoomOut(): void" style="text;strokeColor=none;fillColor=none;align=left;verticalAlign=top;spacingLeft=4;spacingRight=4;overflow=hidden;rotatable=0;points=[[0,0.5],[1,0.5]];portConstraint=eastwest;" parent="D0WQU8Z_5N7r7djm6m5t-119" vertex="1">
          <mxGeometry y="372" width="223" height="26" as="geometry" />
        </mxCell>
        <mxCell id="f68Y0WPvlqwC1lVv3MSY-30" value="setXRange(number, number): void" style="text;strokeColor=none;fillColor=none;align=left;verticalAlign=top;spacingLeft=4;spacingRight=4;overflow=hidden;rotatable=0;points=[[0,0.5],[1,0.5]];portConstraint=eastwest;" parent="D0WQU8Z_5N7r7djm6m5t-119" vertex="1">
          <mxGeometry y="398" width="223" height="26" as="geometry" />
        </mxCell>
        <mxCell id="f68Y0WPvlqwC1lVv3MSY-31" value="setYRange(number, number): void" style="text;strokeColor=none;fillColor=none;align=left;verticalAlign=top;spacingLeft=4;spacingRight=4;overflow=hidden;rotatable=0;points=[[0,0.5],[1,0.5]];portConstraint=eastwest;" parent="D0WQU8Z_5N7r7djm6m5t-119" vertex="1">
          <mxGeometry y="424" width="223" height="26" as="geometry" />
        </mxCell>
        <mxCell id="f68Y0WPvlqwC1lVv3MSY-20" style="edgeStyle=orthogonalEdgeStyle;rounded=0;orthogonalLoop=1;jettySize=auto;html=1;exitX=1;exitY=0.5;exitDx=0;exitDy=0;entryX=0;entryY=0.5;entryDx=0;entryDy=0;" parent="1" target="D0WQU8Z_5N7r7djm6m5t-125" edge="1">
          <mxGeometry relative="1" as="geometry">
            <mxPoint x="239" y="-69" as="sourcePoint" />
          </mxGeometry>
        </mxCell>
        <mxCell id="D0WQU8Z_5N7r7djm6m5t-141" value="DataModel" style="swimlane;fontStyle=1;align=center;verticalAlign=top;childLayout=stackLayout;horizontal=1;startSize=26;horizontalStack=0;resizeParent=1;resizeParentMax=0;resizeLast=0;collapsible=1;marginBottom=0;" parent="1" vertex="1">
          <mxGeometry x="9" y="-220" width="230" height="216" as="geometry" />
        </mxCell>
        <mxCell id="D0WQU8Z_5N7r7djm6m5t-142" value="data: matrix" style="text;strokeColor=none;fillColor=none;align=left;verticalAlign=top;spacingLeft=4;spacingRight=4;overflow=hidden;rotatable=0;points=[[0,0.5],[1,0.5]];portConstraint=eastwest;" parent="D0WQU8Z_5N7r7djm6m5t-141" vertex="1">
          <mxGeometry y="26" width="230" height="26" as="geometry" />
        </mxCell>
        <mxCell id="JkL0fdGp7bMQoUoKIxsp-7" value="fp: pointer" style="text;strokeColor=none;fillColor=none;align=left;verticalAlign=top;spacingLeft=4;spacingRight=4;overflow=hidden;rotatable=0;points=[[0,0.5],[1,0.5]];portConstraint=eastwest;" vertex="1" parent="D0WQU8Z_5N7r7djm6m5t-141">
          <mxGeometry y="52" width="230" height="26" as="geometry" />
        </mxCell>
        <mxCell id="JkL0fdGp7bMQoUoKIxsp-8" value="filename: string" style="text;strokeColor=none;fillColor=none;align=left;verticalAlign=top;spacingLeft=4;spacingRight=4;overflow=hidden;rotatable=0;points=[[0,0.5],[1,0.5]];portConstraint=eastwest;" vertex="1" parent="D0WQU8Z_5N7r7djm6m5t-141">
          <mxGeometry y="78" width="230" height="26" as="geometry" />
        </mxCell>
        <mxCell id="D0WQU8Z_5N7r7djm6m5t-144" value="" style="line;strokeWidth=1;fillColor=none;align=left;verticalAlign=middle;spacingTop=-1;spacingLeft=3;spacingRight=3;rotatable=0;labelPosition=right;points=[];portConstraint=eastwest;strokeColor=inherit;" parent="D0WQU8Z_5N7r7djm6m5t-141" vertex="1">
          <mxGeometry y="104" width="230" height="8" as="geometry" />
        </mxCell>
        <mxCell id="D0WQU8Z_5N7r7djm6m5t-145" value="aggregrate(): dict" style="text;strokeColor=none;fillColor=none;align=left;verticalAlign=top;spacingLeft=4;spacingRight=4;overflow=hidden;rotatable=0;points=[[0,0.5],[1,0.5]];portConstraint=eastwest;" parent="D0WQU8Z_5N7r7djm6m5t-141" vertex="1">
          <mxGeometry y="112" width="230" height="26" as="geometry" />
        </mxCell>
        <mxCell id="VL1n-k4XV_zTkOc4iAcl-8" value="updateTimeWindow(string, string): void" style="text;strokeColor=none;fillColor=none;align=left;verticalAlign=top;spacingLeft=4;spacingRight=4;overflow=hidden;rotatable=0;points=[[0,0.5],[1,0.5]];portConstraint=eastwest;" parent="D0WQU8Z_5N7r7djm6m5t-141" vertex="1">
          <mxGeometry y="138" width="230" height="26" as="geometry" />
        </mxCell>
        <mxCell id="VL1n-k4XV_zTkOc4iAcl-9" value="addColumn(string): void" style="text;strokeColor=none;fillColor=none;align=left;verticalAlign=top;spacingLeft=4;spacingRight=4;overflow=hidden;rotatable=0;points=[[0,0.5],[1,0.5]];portConstraint=eastwest;" parent="D0WQU8Z_5N7r7djm6m5t-141" vertex="1">
          <mxGeometry y="164" width="230" height="26" as="geometry" />
        </mxCell>
        <mxCell id="VL1n-k4XV_zTkOc4iAcl-10" value="removeColumn(string): void" style="text;strokeColor=none;fillColor=none;align=left;verticalAlign=top;spacingLeft=4;spacingRight=4;overflow=hidden;rotatable=0;points=[[0,0.5],[1,0.5]];portConstraint=eastwest;" parent="D0WQU8Z_5N7r7djm6m5t-141" vertex="1">
          <mxGeometry y="190" width="230" height="26" as="geometry" />
        </mxCell>
        <mxCell id="VL1n-k4XV_zTkOc4iAcl-19" value="Button" style="swimlane;fontStyle=1;childLayout=stackLayout;horizontal=1;startSize=26;fillColor=none;horizontalStack=0;resizeParent=1;resizeParentMax=0;resizeLast=0;collapsible=1;marginBottom=0;" parent="1" vertex="1">
          <mxGeometry x="829.5" y="-835" width="161" height="104" as="geometry" />
        </mxCell>
        <mxCell id="VL1n-k4XV_zTkOc4iAcl-20" value="state: boolÂ " style="text;strokeColor=none;fillColor=none;align=left;verticalAlign=top;spacingLeft=4;spacingRight=4;overflow=hidden;rotatable=0;points=[[0,0.5],[1,0.5]];portConstraint=eastwest;" parent="VL1n-k4XV_zTkOc4iAcl-19" vertex="1">
          <mxGeometry y="26" width="161" height="26" as="geometry" />
        </mxCell>
        <mxCell id="VL1n-k4XV_zTkOc4iAcl-21" value="numberPresses: number" style="text;strokeColor=none;fillColor=none;align=left;verticalAlign=top;spacingLeft=4;spacingRight=4;overflow=hidden;rotatable=0;points=[[0,0.5],[1,0.5]];portConstraint=eastwest;" parent="VL1n-k4XV_zTkOc4iAcl-19" vertex="1">
          <mxGeometry y="52" width="161" height="26" as="geometry" />
        </mxCell>
        <mxCell id="quWaPmoQ8DVM9i6n_BUd-2" value="active: bool" style="text;strokeColor=none;fillColor=none;align=left;verticalAlign=top;spacingLeft=4;spacingRight=4;overflow=hidden;rotatable=0;points=[[0,0.5],[1,0.5]];portConstraint=eastwest;" parent="VL1n-k4XV_zTkOc4iAcl-19" vertex="1">
          <mxGeometry y="78" width="161" height="26" as="geometry" />
        </mxCell>
        <mxCell id="VL1n-k4XV_zTkOc4iAcl-40" value="Dropdown" style="swimlane;fontStyle=1;align=center;verticalAlign=top;childLayout=stackLayout;horizontal=1;startSize=26;horizontalStack=0;resizeParent=1;resizeParentMax=0;resizeLast=0;collapsible=1;marginBottom=0;" parent="1" vertex="1">
          <mxGeometry x="829.5" y="-571" width="160" height="78" as="geometry" />
        </mxCell>
        <mxCell id="VL1n-k4XV_zTkOc4iAcl-41" value="options: list&lt;string&gt;" style="text;strokeColor=none;fillColor=none;align=left;verticalAlign=top;spacingLeft=4;spacingRight=4;overflow=hidden;rotatable=0;points=[[0,0.5],[1,0.5]];portConstraint=eastwest;" parent="VL1n-k4XV_zTkOc4iAcl-40" vertex="1">
          <mxGeometry y="26" width="160" height="26" as="geometry" />
        </mxCell>
        <mxCell id="VL1n-k4XV_zTkOc4iAcl-44" value="currentOption: string" style="text;strokeColor=none;fillColor=none;align=left;verticalAlign=top;spacingLeft=4;spacingRight=4;overflow=hidden;rotatable=0;points=[[0,0.5],[1,0.5]];portConstraint=eastwest;" parent="VL1n-k4XV_zTkOc4iAcl-40" vertex="1">
          <mxGeometry y="52" width="160" height="26" as="geometry" />
        </mxCell>
        <mxCell id="quWaPmoQ8DVM9i6n_BUd-6" value="TimeBox" style="swimlane;fontStyle=1;align=center;verticalAlign=top;childLayout=stackLayout;horizontal=1;startSize=26;horizontalStack=0;resizeParent=1;resizeParentMax=0;resizeLast=0;collapsible=1;marginBottom=0;" parent="1" vertex="1">
          <mxGeometry x="829.5" y="-697" width="176" height="112" as="geometry" />
        </mxCell>
        <mxCell id="quWaPmoQ8DVM9i6n_BUd-7" value="startDate: string" style="text;strokeColor=none;fillColor=none;align=left;verticalAlign=top;spacingLeft=4;spacingRight=4;overflow=hidden;rotatable=0;points=[[0,0.5],[1,0.5]];portConstraint=eastwest;" parent="quWaPmoQ8DVM9i6n_BUd-6" vertex="1">
          <mxGeometry y="26" width="176" height="26" as="geometry" />
        </mxCell>
        <mxCell id="quWaPmoQ8DVM9i6n_BUd-10" value="endDate: string" style="text;strokeColor=none;fillColor=none;align=left;verticalAlign=top;spacingLeft=4;spacingRight=4;overflow=hidden;rotatable=0;points=[[0,0.5],[1,0.5]];portConstraint=eastwest;" parent="quWaPmoQ8DVM9i6n_BUd-6" vertex="1">
          <mxGeometry y="52" width="176" height="26" as="geometry" />
        </mxCell>
        <mxCell id="quWaPmoQ8DVM9i6n_BUd-8" value="" style="line;strokeWidth=1;fillColor=none;align=left;verticalAlign=middle;spacingTop=-1;spacingLeft=3;spacingRight=3;rotatable=0;labelPosition=right;points=[];portConstraint=eastwest;strokeColor=inherit;" parent="quWaPmoQ8DVM9i6n_BUd-6" vertex="1">
          <mxGeometry y="78" width="176" height="8" as="geometry" />
        </mxCell>
        <mxCell id="quWaPmoQ8DVM9i6n_BUd-9" value="validateDateRange(): bool" style="text;strokeColor=none;fillColor=none;align=left;verticalAlign=top;spacingLeft=4;spacingRight=4;overflow=hidden;rotatable=0;points=[[0,0.5],[1,0.5]];portConstraint=eastwest;" parent="quWaPmoQ8DVM9i6n_BUd-6" vertex="1">
          <mxGeometry y="86" width="176" height="26" as="geometry" />
        </mxCell>
        <mxCell id="f68Y0WPvlqwC1lVv3MSY-5" value="1" style="endArrow=open;html=1;endSize=12;startArrow=diamondThin;startSize=14;startFill=1;edgeStyle=orthogonalEdgeStyle;align=left;verticalAlign=bottom;rounded=0;exitX=1;exitY=0.5;exitDx=0;exitDy=0;entryX=0;entryY=0.5;entryDx=0;entryDy=0;" parent="1" source="VL1n-k4XV_zTkOc4iAcl-5" target="9P_D7GKj8WP1cLiMkDwV-2" edge="1">
          <mxGeometry x="-1" y="3" relative="1" as="geometry">
            <mxPoint x="515" y="-561" as="sourcePoint" />
            <mxPoint x="510" y="-714" as="targetPoint" />
            <Array as="points">
              <mxPoint x="498" y="-601" />
              <mxPoint x="498" y="-729" />
            </Array>
          </mxGeometry>
        </mxCell>
        <mxCell id="f68Y0WPvlqwC1lVv3MSY-13" value="Widget (Abstract)" style="swimlane;fontStyle=1;align=center;verticalAlign=top;childLayout=stackLayout;horizontal=1;startSize=26;horizontalStack=0;resizeParent=1;resizeParentMax=0;resizeLast=0;collapsible=1;marginBottom=0;" parent="1" vertex="1">
          <mxGeometry x="532" y="-794" width="258" height="346" as="geometry" />
        </mxCell>
        <mxCell id="f68Y0WPvlqwC1lVv3MSY-14" value="callbacks: dict&lt;list&lt;functions&gt;&gt;" style="text;strokeColor=none;fillColor=none;align=left;verticalAlign=top;spacingLeft=4;spacingRight=4;overflow=hidden;rotatable=0;points=[[0,0.5],[1,0.5]];portConstraint=eastwest;" parent="f68Y0WPvlqwC1lVv3MSY-13" vertex="1">
          <mxGeometry y="26" width="258" height="26" as="geometry" />
        </mxCell>
        <mxCell id="9P_D7GKj8WP1cLiMkDwV-2" value="position: (number, number)" style="text;strokeColor=none;fillColor=none;align=left;verticalAlign=top;spacingLeft=4;spacingRight=4;overflow=hidden;rotatable=0;points=[[0,0.5],[1,0.5]];portConstraint=eastwest;" parent="f68Y0WPvlqwC1lVv3MSY-13" vertex="1">
          <mxGeometry y="52" width="258" height="26" as="geometry" />
        </mxCell>
        <mxCell id="JkL0fdGp7bMQoUoKIxsp-4" value="callbacks: dict&lt;list&lt;functions&gt;&gt;" style="text;strokeColor=none;fillColor=none;align=left;verticalAlign=top;spacingLeft=4;spacingRight=4;overflow=hidden;rotatable=0;points=[[0,0.5],[1,0.5]];portConstraint=eastwest;" vertex="1" parent="f68Y0WPvlqwC1lVv3MSY-13">
          <mxGeometry y="78" width="258" height="26" as="geometry" />
        </mxCell>
        <mxCell id="JkL0fdGp7bMQoUoKIxsp-6" value="dimensions: (number, number)" style="text;strokeColor=none;fillColor=none;align=left;verticalAlign=top;spacingLeft=4;spacingRight=4;overflow=hidden;rotatable=0;points=[[0,0.5],[1,0.5]];portConstraint=eastwest;" vertex="1" parent="f68Y0WPvlqwC1lVv3MSY-13">
          <mxGeometry y="104" width="258" height="26" as="geometry" />
        </mxCell>
        <mxCell id="9P_D7GKj8WP1cLiMkDwV-3" value="name: string" style="text;strokeColor=none;fillColor=none;align=left;verticalAlign=top;spacingLeft=4;spacingRight=4;overflow=hidden;rotatable=0;points=[[0,0.5],[1,0.5]];portConstraint=eastwest;" parent="f68Y0WPvlqwC1lVv3MSY-13" vertex="1">
          <mxGeometry y="130" width="258" height="26" as="geometry" />
        </mxCell>
        <mxCell id="f68Y0WPvlqwC1lVv3MSY-15" value="" style="line;strokeWidth=1;fillColor=none;align=left;verticalAlign=middle;spacingTop=-1;spacingLeft=3;spacingRight=3;rotatable=0;labelPosition=right;points=[];portConstraint=eastwest;strokeColor=inherit;" parent="f68Y0WPvlqwC1lVv3MSY-13" vertex="1">
          <mxGeometry y="156" width="258" height="8" as="geometry" />
        </mxCell>
        <mxCell id="f68Y0WPvlqwC1lVv3MSY-16" value="onClick()" style="text;strokeColor=none;fillColor=none;align=left;verticalAlign=top;spacingLeft=4;spacingRight=4;overflow=hidden;rotatable=0;points=[[0,0.5],[1,0.5]];portConstraint=eastwest;" parent="f68Y0WPvlqwC1lVv3MSY-13" vertex="1">
          <mxGeometry y="164" width="258" height="26" as="geometry" />
        </mxCell>
        <mxCell id="f68Y0WPvlqwC1lVv3MSY-39" value="onRelease()" style="text;strokeColor=none;fillColor=none;align=left;verticalAlign=top;spacingLeft=4;spacingRight=4;overflow=hidden;rotatable=0;points=[[0,0.5],[1,0.5]];portConstraint=eastwest;" parent="f68Y0WPvlqwC1lVv3MSY-13" vertex="1">
          <mxGeometry y="190" width="258" height="26" as="geometry" />
        </mxCell>
        <mxCell id="f68Y0WPvlqwC1lVv3MSY-17" value="onChange()" style="text;strokeColor=none;fillColor=none;align=left;verticalAlign=top;spacingLeft=4;spacingRight=4;overflow=hidden;rotatable=0;points=[[0,0.5],[1,0.5]];portConstraint=eastwest;" parent="f68Y0WPvlqwC1lVv3MSY-13" vertex="1">
          <mxGeometry y="216" width="258" height="26" as="geometry" />
        </mxCell>
        <mxCell id="9P_D7GKj8WP1cLiMkDwV-5" value="move(number, number)" style="text;strokeColor=none;fillColor=none;align=left;verticalAlign=top;spacingLeft=4;spacingRight=4;overflow=hidden;rotatable=0;points=[[0,0.5],[1,0.5]];portConstraint=eastwest;" parent="f68Y0WPvlqwC1lVv3MSY-13" vertex="1">
          <mxGeometry y="242" width="258" height="26" as="geometry" />
        </mxCell>
        <mxCell id="9P_D7GKj8WP1cLiMkDwV-4" value="resize(number, number)" style="text;strokeColor=none;fillColor=none;align=left;verticalAlign=top;spacingLeft=4;spacingRight=4;overflow=hidden;rotatable=0;points=[[0,0.5],[1,0.5]];portConstraint=eastwest;" parent="f68Y0WPvlqwC1lVv3MSY-13" vertex="1">
          <mxGeometry y="268" width="258" height="26" as="geometry" />
        </mxCell>
        <mxCell id="f68Y0WPvlqwC1lVv3MSY-18" value="addCallback(string, string, function): void" style="text;strokeColor=none;fillColor=none;align=left;verticalAlign=top;spacingLeft=4;spacingRight=4;overflow=hidden;rotatable=0;points=[[0,0.5],[1,0.5]];portConstraint=eastwest;" parent="f68Y0WPvlqwC1lVv3MSY-13" vertex="1">
          <mxGeometry y="294" width="258" height="26" as="geometry" />
        </mxCell>
        <mxCell id="f68Y0WPvlqwC1lVv3MSY-19" value="removeCallback(string, string): void" style="text;strokeColor=none;fillColor=none;align=left;verticalAlign=top;spacingLeft=4;spacingRight=4;overflow=hidden;rotatable=0;points=[[0,0.5],[1,0.5]];portConstraint=eastwest;" parent="f68Y0WPvlqwC1lVv3MSY-13" vertex="1">
          <mxGeometry y="320" width="258" height="26" as="geometry" />
        </mxCell>
        <mxCell id="f68Y0WPvlqwC1lVv3MSY-40" value="1" style="endArrow=open;html=1;endSize=12;startArrow=diamondThin;startSize=14;startFill=1;edgeStyle=orthogonalEdgeStyle;align=left;verticalAlign=bottom;rounded=0;exitX=1;exitY=0.5;exitDx=0;exitDy=0;entryX=0.5;entryY=0;entryDx=0;entryDy=0;" parent="1" source="D0WQU8Z_5N7r7djm6m5t-74" target="f68Y0WPvlqwC1lVv3MSY-13" edge="1">
          <mxGeometry x="-1" y="3" relative="1" as="geometry">
            <mxPoint x="514" y="-436" as="sourcePoint" />
            <mxPoint x="435" y="-814" as="targetPoint" />
            <Array as="points">
              <mxPoint x="385" y="-779" />
              <mxPoint x="385" y="-814" />
              <mxPoint x="662" y="-814" />
            </Array>
          </mxGeometry>
        </mxCell>
        <mxCell id="f68Y0WPvlqwC1lVv3MSY-41" value="1" style="endArrow=open;html=1;endSize=12;startArrow=diamondThin;startSize=14;startFill=0;edgeStyle=orthogonalEdgeStyle;align=left;verticalAlign=bottom;rounded=0;exitX=1;exitY=0.5;exitDx=0;exitDy=0;" parent="1" source="D0WQU8Z_5N7r7djm6m5t-73" target="D0WQU8Z_5N7r7djm6m5t-81" edge="1">
          <mxGeometry x="-1" y="3" relative="1" as="geometry">
            <mxPoint x="514" y="-436" as="sourcePoint" />
            <mxPoint x="485" y="-768" as="targetPoint" />
            <Array as="points">
              <mxPoint x="387" y="-753" />
            </Array>
          </mxGeometry>
        </mxCell>
        <mxCell id="9P_D7GKj8WP1cLiMkDwV-8" style="edgeStyle=orthogonalEdgeStyle;rounded=0;orthogonalLoop=1;jettySize=auto;html=1;exitX=0;exitY=0.5;exitDx=0;exitDy=0;entryX=1;entryY=0.5;entryDx=0;entryDy=0;" parent="1" source="VL1n-k4XV_zTkOc4iAcl-41" target="f68Y0WPvlqwC1lVv3MSY-19" edge="1">
          <mxGeometry relative="1" as="geometry" />
        </mxCell>
        <mxCell id="9P_D7GKj8WP1cLiMkDwV-9" style="edgeStyle=orthogonalEdgeStyle;rounded=0;orthogonalLoop=1;jettySize=auto;html=1;exitX=0;exitY=0.5;exitDx=0;exitDy=0;entryX=1;entryY=0.5;entryDx=0;entryDy=0;" parent="1" source="VL1n-k4XV_zTkOc4iAcl-20" target="f68Y0WPvlqwC1lVv3MSY-14" edge="1">
          <mxGeometry relative="1" as="geometry" />
        </mxCell>
        <mxCell id="9P_D7GKj8WP1cLiMkDwV-10" style="edgeStyle=orthogonalEdgeStyle;rounded=0;orthogonalLoop=1;jettySize=auto;html=1;exitX=0;exitY=0.5;exitDx=0;exitDy=0;entryX=1;entryY=0.5;entryDx=0;entryDy=0;" parent="1" source="quWaPmoQ8DVM9i6n_BUd-10" target="f68Y0WPvlqwC1lVv3MSY-39" edge="1">
          <mxGeometry relative="1" as="geometry" />
        </mxCell>
        <mxCell id="DW6i58N5UlW2nnshNmnk-1" value="Class Diagram" style="text;html=1;align=center;verticalAlign=middle;resizable=0;points=[];autosize=1;strokeColor=none;fillColor=none;" parent="1" vertex="1">
          <mxGeometry x="21" y="-850" width="97" height="26" as="geometry" />
        </mxCell>
      </root>
    </mxGraphModel>
  </diagram>
  <diagram id="30xvKILDlMbHiVbcK9Qc" name="Page-2">
    <mxGraphModel dx="1662" dy="794" grid="0" gridSize="10" guides="1" tooltips="1" connect="1" arrows="1" fold="1" page="1" pageScale="1" pageWidth="1100" pageHeight="850" math="0" shadow="0">
      <root>
        <mxCell id="0" />
        <mxCell id="1" parent="0" />
        <mxCell id="NoYjkFSLYhmX5Nuedjid-8" style="edgeStyle=orthogonalEdgeStyle;rounded=0;orthogonalLoop=1;jettySize=auto;html=1;exitX=1;exitY=0.5;exitDx=0;exitDy=0;entryX=0;entryY=0.5;entryDx=0;entryDy=0;" parent="1" source="NoYjkFSLYhmX5Nuedjid-1" target="NoYjkFSLYhmX5Nuedjid-13" edge="1">
          <mxGeometry relative="1" as="geometry">
            <mxPoint x="361" y="286" as="targetPoint" />
          </mxGeometry>
        </mxCell>
        <mxCell id="NoYjkFSLYhmX5Nuedjid-30" style="edgeStyle=orthogonalEdgeStyle;rounded=0;orthogonalLoop=1;jettySize=auto;html=1;exitX=0.5;exitY=1;exitDx=0;exitDy=0;entryX=0.5;entryY=1;entryDx=0;entryDy=0;" parent="1" source="NoYjkFSLYhmX5Nuedjid-1" target="NoYjkFSLYhmX5Nuedjid-16" edge="1">
          <mxGeometry relative="1" as="geometry">
            <Array as="points">
              <mxPoint x="202" y="358" />
              <mxPoint x="643" y="358" />
            </Array>
          </mxGeometry>
        </mxCell>
        <mxCell id="NoYjkFSLYhmX5Nuedjid-39" style="edgeStyle=orthogonalEdgeStyle;rounded=0;orthogonalLoop=1;jettySize=auto;html=1;exitX=0.25;exitY=1;exitDx=0;exitDy=0;" parent="1" source="NoYjkFSLYhmX5Nuedjid-1" target="NoYjkFSLYhmX5Nuedjid-40" edge="1">
          <mxGeometry relative="1" as="geometry">
            <mxPoint x="172" y="427" as="targetPoint" />
          </mxGeometry>
        </mxCell>
        <mxCell id="NoYjkFSLYhmX5Nuedjid-1" value="Main Window" style="rounded=0;whiteSpace=wrap;html=1;" parent="1" vertex="1">
          <mxGeometry x="142" y="256" width="120" height="60" as="geometry" />
        </mxCell>
        <mxCell id="NoYjkFSLYhmX5Nuedjid-5" value="" style="endArrow=classic;html=1;rounded=0;entryX=0;entryY=0.5;entryDx=0;entryDy=0;startArrow=none;" parent="1" source="NoYjkFSLYhmX5Nuedjid-6" target="NoYjkFSLYhmX5Nuedjid-1" edge="1">
          <mxGeometry width="50" height="50" relative="1" as="geometry">
            <mxPoint x="87" y="286" as="sourcePoint" />
            <mxPoint x="574" y="345" as="targetPoint" />
          </mxGeometry>
        </mxCell>
        <mxCell id="NoYjkFSLYhmX5Nuedjid-6" value="Application Starts" style="text;html=1;align=center;verticalAlign=middle;resizable=0;points=[];autosize=1;strokeColor=none;fillColor=none;" parent="1" vertex="1">
          <mxGeometry x="10" y="273" width="111" height="26" as="geometry" />
        </mxCell>
        <mxCell id="NoYjkFSLYhmX5Nuedjid-12" value="User Selects Data&lt;br&gt;Builder Panel&lt;br&gt;select()" style="text;html=1;align=center;verticalAlign=middle;resizable=0;points=[];autosize=1;strokeColor=none;fillColor=none;" parent="1" vertex="1">
          <mxGeometry x="256" y="235" width="115" height="55" as="geometry" />
        </mxCell>
        <mxCell id="NoYjkFSLYhmX5Nuedjid-17" style="edgeStyle=orthogonalEdgeStyle;rounded=0;orthogonalLoop=1;jettySize=auto;html=1;exitX=1;exitY=0.5;exitDx=0;exitDy=0;entryX=0;entryY=0.5;entryDx=0;entryDy=0;" parent="1" source="NoYjkFSLYhmX5Nuedjid-13" target="NoYjkFSLYhmX5Nuedjid-16" edge="1">
          <mxGeometry relative="1" as="geometry" />
        </mxCell>
        <mxCell id="NoYjkFSLYhmX5Nuedjid-38" style="edgeStyle=orthogonalEdgeStyle;rounded=0;orthogonalLoop=1;jettySize=auto;html=1;exitX=0.5;exitY=1;exitDx=0;exitDy=0;entryX=0.5;entryY=1;entryDx=0;entryDy=0;" parent="1" source="NoYjkFSLYhmX5Nuedjid-13" target="NoYjkFSLYhmX5Nuedjid-16" edge="1">
          <mxGeometry relative="1" as="geometry">
            <Array as="points">
              <mxPoint x="427" y="343" />
              <mxPoint x="643" y="343" />
            </Array>
          </mxGeometry>
        </mxCell>
        <mxCell id="NoYjkFSLYhmX5Nuedjid-13" value="Data Builder Panel" style="rounded=0;whiteSpace=wrap;html=1;" parent="1" vertex="1">
          <mxGeometry x="367" y="256" width="120" height="60" as="geometry" />
        </mxCell>
        <mxCell id="NoYjkFSLYhmX5Nuedjid-14" style="edgeStyle=orthogonalEdgeStyle;rounded=0;orthogonalLoop=1;jettySize=auto;html=1;exitX=0.75;exitY=0;exitDx=0;exitDy=0;entryX=0.5;entryY=0;entryDx=0;entryDy=0;" parent="1" source="NoYjkFSLYhmX5Nuedjid-13" target="NoYjkFSLYhmX5Nuedjid-13" edge="1">
          <mxGeometry relative="1" as="geometry">
            <Array as="points">
              <mxPoint x="457" y="183" />
              <mxPoint x="427" y="183" />
            </Array>
          </mxGeometry>
        </mxCell>
        <mxCell id="NoYjkFSLYhmX5Nuedjid-15" value="User Sets Values of&lt;br&gt;Configuration Widgets" style="text;html=1;align=center;verticalAlign=middle;resizable=0;points=[];autosize=1;strokeColor=none;fillColor=none;" parent="1" vertex="1">
          <mxGeometry x="378" y="139" width="136" height="41" as="geometry" />
        </mxCell>
        <mxCell id="NoYjkFSLYhmX5Nuedjid-28" style="edgeStyle=orthogonalEdgeStyle;rounded=0;orthogonalLoop=1;jettySize=auto;html=1;exitX=0.5;exitY=0;exitDx=0;exitDy=0;entryX=0.5;entryY=0;entryDx=0;entryDy=0;" parent="1" source="NoYjkFSLYhmX5Nuedjid-16" target="NoYjkFSLYhmX5Nuedjid-1" edge="1">
          <mxGeometry relative="1" as="geometry">
            <Array as="points">
              <mxPoint x="643" y="119" />
              <mxPoint x="202" y="119" />
            </Array>
          </mxGeometry>
        </mxCell>
        <mxCell id="NoYjkFSLYhmX5Nuedjid-29" style="edgeStyle=orthogonalEdgeStyle;rounded=0;orthogonalLoop=1;jettySize=auto;html=1;exitX=1;exitY=0.5;exitDx=0;exitDy=0;entryX=0;entryY=0.5;entryDx=0;entryDy=0;" parent="1" source="NoYjkFSLYhmX5Nuedjid-16" target="NoYjkFSLYhmX5Nuedjid-32" edge="1">
          <mxGeometry relative="1" as="geometry">
            <mxPoint x="777" y="286" as="targetPoint" />
          </mxGeometry>
        </mxCell>
        <mxCell id="NoYjkFSLYhmX5Nuedjid-16" value="Dataset Panel" style="rounded=0;whiteSpace=wrap;html=1;" parent="1" vertex="1">
          <mxGeometry x="583" y="256" width="120" height="60" as="geometry" />
        </mxCell>
        <mxCell id="NoYjkFSLYhmX5Nuedjid-18" value="User Clicks &lt;br&gt;Create Panel&lt;br&gt;Button&lt;br&gt;onClick()" style="text;html=1;align=center;verticalAlign=middle;resizable=0;points=[];autosize=1;strokeColor=none;fillColor=none;" parent="1" vertex="1">
          <mxGeometry x="490" y="217" width="88" height="70" as="geometry" />
        </mxCell>
        <mxCell id="NoYjkFSLYhmX5Nuedjid-22" value="User Closes Panel: panel.close()" style="text;html=1;align=center;verticalAlign=middle;resizable=0;points=[];autosize=1;strokeColor=none;fillColor=none;" parent="1" vertex="1">
          <mxGeometry x="324" y="93" width="193" height="26" as="geometry" />
        </mxCell>
        <mxCell id="NoYjkFSLYhmX5Nuedjid-31" value="Dataset Panel Selected: panel.select()" style="text;html=1;align=center;verticalAlign=middle;resizable=0;points=[];autosize=1;strokeColor=none;fillColor=none;" parent="1" vertex="1">
          <mxGeometry x="328" y="359" width="222" height="26" as="geometry" />
        </mxCell>
        <mxCell id="NoYjkFSLYhmX5Nuedjid-35" style="edgeStyle=orthogonalEdgeStyle;rounded=0;orthogonalLoop=1;jettySize=auto;html=1;exitX=0.5;exitY=0;exitDx=0;exitDy=0;entryX=0.5;entryY=0;entryDx=0;entryDy=0;" parent="1" source="NoYjkFSLYhmX5Nuedjid-32" target="NoYjkFSLYhmX5Nuedjid-1" edge="1">
          <mxGeometry relative="1" as="geometry">
            <Array as="points">
              <mxPoint x="904" y="119" />
              <mxPoint x="202" y="119" />
            </Array>
          </mxGeometry>
        </mxCell>
        <mxCell id="NoYjkFSLYhmX5Nuedjid-32" value="Aggregate Panel" style="rounded=0;whiteSpace=wrap;html=1;" parent="1" vertex="1">
          <mxGeometry x="844" y="256" width="120" height="60" as="geometry" />
        </mxCell>
        <mxCell id="NoYjkFSLYhmX5Nuedjid-33" value="Aggregate Widget &lt;br&gt;Selected, onClick()" style="text;html=1;align=center;verticalAlign=middle;resizable=0;points=[];autosize=1;strokeColor=none;fillColor=none;" parent="1" vertex="1">
          <mxGeometry x="710" y="246" width="119" height="41" as="geometry" />
        </mxCell>
        <mxCell id="NoYjkFSLYhmX5Nuedjid-36" style="edgeStyle=orthogonalEdgeStyle;rounded=0;orthogonalLoop=1;jettySize=auto;html=1;exitX=0.5;exitY=1;exitDx=0;exitDy=0;entryX=0.75;entryY=1;entryDx=0;entryDy=0;" parent="1" source="NoYjkFSLYhmX5Nuedjid-32" target="NoYjkFSLYhmX5Nuedjid-32" edge="1">
          <mxGeometry relative="1" as="geometry">
            <Array as="points">
              <mxPoint x="904" y="361" />
              <mxPoint x="934" y="361" />
            </Array>
          </mxGeometry>
        </mxCell>
        <mxCell id="NoYjkFSLYhmX5Nuedjid-37" value="Interactive &lt;br&gt;Widget Clicked" style="text;html=1;align=center;verticalAlign=middle;resizable=0;points=[];autosize=1;strokeColor=none;fillColor=none;" parent="1" vertex="1">
          <mxGeometry x="868" y="361" width="98" height="41" as="geometry" />
        </mxCell>
        <mxCell id="NoYjkFSLYhmX5Nuedjid-43" style="edgeStyle=orthogonalEdgeStyle;rounded=0;orthogonalLoop=1;jettySize=auto;html=1;exitX=0.5;exitY=1;exitDx=0;exitDy=0;" parent="1" source="NoYjkFSLYhmX5Nuedjid-40" edge="1">
          <mxGeometry relative="1" as="geometry">
            <mxPoint x="172" y="523" as="targetPoint" />
          </mxGeometry>
        </mxCell>
        <mxCell id="NoYjkFSLYhmX5Nuedjid-40" value="Cleanup" style="rounded=0;whiteSpace=wrap;html=1;" parent="1" vertex="1">
          <mxGeometry x="112" y="397" width="120" height="60" as="geometry" />
        </mxCell>
        <mxCell id="NoYjkFSLYhmX5Nuedjid-41" value="Application &lt;br&gt;Closed&lt;br&gt;window.close()" style="text;html=1;align=center;verticalAlign=middle;resizable=0;points=[];autosize=1;strokeColor=none;fillColor=none;" parent="1" vertex="1">
          <mxGeometry x="90" y="337" width="97" height="55" as="geometry" />
        </mxCell>
        <mxCell id="NoYjkFSLYhmX5Nuedjid-44" style="edgeStyle=orthogonalEdgeStyle;rounded=0;orthogonalLoop=1;jettySize=auto;html=1;exitX=0.75;exitY=1;exitDx=0;exitDy=0;entryX=1;entryY=1;entryDx=0;entryDy=0;" parent="1" source="NoYjkFSLYhmX5Nuedjid-16" target="NoYjkFSLYhmX5Nuedjid-16" edge="1">
          <mxGeometry relative="1" as="geometry">
            <Array as="points">
              <mxPoint x="673" y="367" />
              <mxPoint x="703" y="367" />
            </Array>
          </mxGeometry>
        </mxCell>
        <mxCell id="NoYjkFSLYhmX5Nuedjid-45" value="Zoom, Pan, Timebox Change, &lt;br&gt;Synchronization" style="text;html=1;align=center;verticalAlign=middle;resizable=0;points=[];autosize=1;strokeColor=none;fillColor=none;" parent="1" vertex="1">
          <mxGeometry x="613" y="368" width="177" height="41" as="geometry" />
        </mxCell>
        <mxCell id="XQu4RQWhKXbsBsdhZZHq-1" value="State Transition Diagram" style="text;html=1;align=center;verticalAlign=middle;resizable=0;points=[];autosize=1;strokeColor=none;fillColor=none;" vertex="1" parent="1">
          <mxGeometry x="63.5" y="49" width="150" height="26" as="geometry" />
        </mxCell>
      </root>
    </mxGraphModel>
  </diagram>
</mxfile>
